#!OML:ASF E:\CV Data\Top Level 1\Subject 1\Session 1\player.ASF
:FULLY-SPECIFIED
:DEGREES
1300
root -3.14946 17.3344 2.59377 3.96157 -13.5237 -5.09112
lowerback 3.21111 0.41933 0.241375
upperback -4.39532 0.729644 2.85307
thorax -6.41057 0.422366 2.7786
lowerneck -12.1604 -11.3239 -16.8774
upperneck 24.847 -15.4905 11.1334
head 12.4948 -7.42776 4.50683
rclavicle 3.2551e-015 -2.92213e-014
rhumerus 342.28 362.882 635.466
rradius 32.7107
rwrist -16.4148
rhand -23.3083 7.00168
rfingers 7.12502
rthumb 3.14538 -22.9549
lclavicle 3.2551e-015 -2.92213e-014
lhumerus -36.3958 8.45645 83.0691
lradius 29.2842
lwrist -11.342
lhand -7.41856 7.33131
lfingers 7.12502
lthumb 18.4682 36.4746
rfemur -16.1364 7.40541 23.8384
rtibia 38.4407
rfoot -23.6944 -6.52456
rtoes 4.553
lfemur -12.1135 2.82322 -16.7274
ltibia 34.7286
lfoot -19.7873 7.70238
ltoes 2.00945
1301
root -3.15182 17.3341 2.60229 3.98209 -13.4308 -5.12944
lowerback 3.04865 0.43164 0.226843
upperback -4.375 0.739752 2.81934
thorax -6.29525 0.426422 2.7505
lowerneck -11.5014 -11.6896 -17.2865
upperneck 24.3484 -16.1291 11.595
head 12.3616 -7.72807 4.64265
rclavicle -8.85834e-015 -1.74931e-014
rhumerus 342.567 363.567 635.183
rradius 33.1865
rwrist -16.6153
rhand -23.3203 7.01683
rfingers 7.12502
rthumb 3.13382 -22.9399
lclavicle -8.85834e-015 -1.74931e-014
lhumerus -36.4263 8.26552 83.2038
lradius 29.6316
lwrist -11.0696
lhand -7.46785 7.32221
lfingers 7.12502
lthumb 18.4208 36.47
rfemur -16.0923 7.3683 23.8836
rtibia 38.4077
rfoot -23.7196 -6.55099
rtoes 4.56806
lfemur -12.1185 2.75828 -16.6865
ltibia 34.747
lfoot -19.8101 7.7085
ltoes 1.95654
1302
root -3.15438 17.3337 2.61113 4.00352 -13.3378 -5.1718
lowerback 2.88431 0.448961 0.21416
upperback -4.34704 0.756491 2.7833
thorax -6.1711 0.433548 2.71847
lowerneck -10.8087 -12.0627 -17.6843
upperneck 23.8021 -16.7858 12.0682
head 12.2144 -8.03849 4.77774
rclavicle -1.43995e-014 -1.54058e-014
rhumerus 342.833 364.215 634.915
rradius 33.6439
rwrist -16.7945
rhand -23.3347 7.06352
rfingers 7.12502
rthumb 3.11992 -22.8934
lclavicle -1.43995e-014 -1.54058e-014
lhumerus -36.4502 8.07524 83.3263
lradius 29.9838
lwrist -10.7951
lhand -7.51725 7.33723
lfingers 7.12502
lthumb 18.3733 36.4895
rfemur -16.0457 7.33166 23.934
rtibia 38.3722
rfoot -23.7455 -6.57915
rtoes 4.58001
lfemur -12.1223 2.68962 -16.6419
ltibia 34.7672
lfoot -19.8338 7.72369
ltoes 1.90296
1303
root -3.15709 17.3332 2.62025 4.02231 -13.243 -5.21581
lowerback 2.72769 0.469252 0.198099
upperback -4.31633 0.777318 2.74863
thorax -6.04889 0.442919 2.6896
lowerneck -10.0924 -12.438 -18.0729
upperneck 23.2212 -17.4506 12.5488
head 12.0588 -8.35511 4.91263
rclavicle 2.48481e-015 1.56046e-014
rhumerus 343.057 364.856 634.661
rradius 34.1037
rwrist -16.9625
rhand -23.3724 7.11157
rfingers 7.12502
rthumb 3.08344 -22.8459
lclavicle 2.48481e-015 1.56046e-014
lhumerus -36.4758 7.89673 83.4377
lradius 30.333
lwrist -10.5275
lhand -7.56216 7.3805
lfingers 7.12502
lthumb 18.3301 36.5369
rfemur -15.9945 7.29267 23.9876
rtibia 38.3358
rfoot -23.7725 -6.60965
rtoes 4.58405
lfemur -12.1219 2.61798 -16.5957
ltibia 34.7881
lfoot -19.8585 7.74372
ltoes 1.85564
1304
root -3.15991 17.3327 2.62944 4.03617 -13.1416 -5.26015
lowerback 2.5832 0.487082 0.177622
upperback -4.28639 0.795185 2.7178
thorax -5.93459 0.451189 2.66764
lowerneck -9.34536 -12.8083 -18.4503
upperneck 22.6106 -18.1124 13.0278
head 11.8923 -8.67431 5.04649
rclavicle 1.23309e-014 -5.96354e-015
rhumerus 343.241 365.491 634.421
rradius 34.5528
rwrist -17.1165
rhand -23.3922 7.1877
rfingers 7.12502
rthumb 3.06436 -22.77
lclavicle 1.23309e-014 -5.96354e-015
lhumerus -36.5115 7.74596 83.5339
lradius 30.6772
lwrist -10.2734
lhand -7.6113 7.45056
lfingers 7.12502
lthumb 18.2828 36.6114
rfemur -15.9371 7.2497 24.0437
rtibia 38.2999
rfoot -23.8006 -6.64498
rtoes 4.58734
lfemur -12.1172 2.54713 -16.5478
ltibia 34.8098
lfoot -19.8833 7.75981
ltoes 1.81522
1305
root -3.16283 17.332 2.6386 4.04081 -13.034 -5.30039
lowerback 2.45328 0.502686 0.149643
upperback -4.25485 0.810085 2.68772
thorax -5.82709 0.458383 2.65101
lowerneck -8.58624 -13.1726 -18.8093
upperneck 21.9804 -18.7678 13.5035
head 11.7211 -8.99344 5.17758
rclavicle 1.57847e-014 1.09332e-014
rhumerus 343.382 366.118 634.188
rradius 34.9969
rwrist -17.259
rhand -23.4083 7.27809
rfingers 7.12502
rthumb 3.0488 -22.6799
lclavicle 1.57847e-014 1.09332e-014
lhumerus -36.5502 7.61717 83.6134
lradius 31.0098
lwrist -10.0288
lhand -7.67961 7.52082
lfingers 7.12502
lthumb 18.2171 36.6878
rfemur -15.8715 7.20178 24.0984
rtibia 38.2657
rfoot -23.8274 -6.68659
rtoes 4.57956
lfemur -12.1044 2.48302 -16.5019
ltibia 34.8314
lfoot -19.9103 7.76475
ltoes 1.77148
1306
root -3.16583 17.3312 2.64765 4.03792 -12.9192 -5.33802
lowerback 2.3391 0.513603 0.114502
upperback -4.22363 0.818897 2.66009
thorax -5.72893 0.462982 2.64149
lowerneck -7.82707 -13.5278 -19.146
upperneck 21.3452 -19.4102 13.9676
head 11.55 -9.30938 5.30331
rclavicle 1.91423e-014 2.93207e-015
rhumerus 343.486 366.733 633.959
rradius 35.4261
rwrist -17.3808
rhand -23.3953 7.37782
rfingers 7.12502
rthumb 3.06136 -22.58
lclavicle 1.91423e-014 2.93207e-015
lhumerus -36.5984 7.51547 83.6746
lradius 31.3299
lwrist -9.79684
lhand -7.77777 7.58077
lfingers 7.12502
lthumb 18.1227 36.7565
rfemur -15.7997 7.14741 24.1529
rtibia 38.2337
rfoot -23.8535 -6.73276
rtoes 4.57103
lfemur -12.0864 2.42481 -16.456
ltibia 34.8534
lfoot -19.9387 7.7566
ltoes 1.72482
1307
root -3.16901 17.3304 2.65634 4.02764 -12.7971 -5.37268
lowerback 2.24086 0.519911 0.0723993
upperback -4.19307 0.821687 2.63374
thorax -5.64056 0.464968 2.63768
lowerneck -7.06691 -13.8683 -19.4679
upperneck 20.7122 -20.033 14.4279
head 11.3815 -9.61909 5.4293
rclavicle 2.64166e-014 2.03754e-014
rhumerus 343.551 367.337 633.73
rradius 35.8411
rwrist -17.4878
rhand -23.3728 7.4913
rfingers 7.12502
rthumb 3.08308 -22.4662
lclavicle 2.64166e-014 2.03754e-014
lhumerus -36.655 7.43821 83.7159
lradius 31.636
lwrist -9.57105
lhand -7.92107 7.61165
lfingers 7.12502
lthumb 17.9848 36.8001
rfemur -15.7228 7.08805 24.2074
rtibia 38.2043
rfoot -23.8781 -6.78496
rtoes 4.56399
lfemur -12.0638 2.37568 -16.4093
ltibia 34.8751
lfoot -19.9694 7.73003
ltoes 1.6735
1308
root -3.17242 17.3296 2.6648 4.01395 -12.6698 -5.40669
lowerback 2.15538 0.524159 0.0252663
upperback -4.16269 0.821919 2.60902
thorax -5.55976 0.465959 2.63859
lowerneck -6.31814 -14.1944 -19.7683
upperneck 20.0913 -20.634 14.8745
head 11.2187 -9.92095 5.55092
rclavicle 2.53901e-014 2.85629e-014
rhumerus 343.583 367.92 633.503
rradius 36.2392
rwrist -17.5741
rhand -23.3472 7.60578
rfingers 7.12502
rthumb 3.1078 -22.3513
lclavicle 2.53901e-014 2.85629e-014
lhumerus -36.714 7.38333 83.7397
lradius 31.919
lwrist -9.35637
lhand -8.14059 7.56835
lfingers 7.12502
lthumb 17.7736 36.7761
rfemur -15.6443 7.02664 24.2636
rtibia 38.1768
rfoot -23.9013 -6.84201
rtoes 4.55428
lfemur -12.0402 2.33413 -16.3596
ltibia 34.8975
lfoot -20.0023 7.68663
ltoes 1.62812
1309
root -3.17608 17.3289 2.67313 3.99953 -12.5412 -5.43837
lowerback 2.07706 0.529841 -0.0260959
upperback -4.13105 0.824009 2.58218
thorax -5.48192 0.467984 2.63953
lowerneck -5.59868 -14.5084 -20.0436
upperneck 19.4932 -21.215 15.3072
head 11.068 -10.2142 5.66613
rclavicle -3.20012e-014 8.73721e-015
rhumerus 343.582 368.481 633.274
rradius 36.6256
rwrist -17.6412
rhand -23.3551 7.68303
rfingers 7.12502
rthumb 3.10016 -22.2742
lclavicle -3.20012e-014 8.73721e-015
lhumerus -36.7713 7.34477 83.7444
lradius 32.1755
lwrist -9.15422
lhand -8.40882 7.48868
lfingers 7.12502
lthumb 17.5154 36.7196
rfemur -15.5668 6.96325 24.3184
rtibia 38.1509
rfoot -23.9249 -6.89948
rtoes 4.54849
lfemur -12.0177 2.30024 -16.3096
ltibia 34.9206
lfoot -20.038 7.62926
ltoes 1.58629
1310
root -3.18003 17.3282 2.68131 3.98801 -12.4107 -5.47014
lowerback 2.00023 0.536208 -0.0778788
upperback -4.09917 0.827131 2.55457
thorax -5.40476 0.470489 2.63987
lowerneck -4.90397 -14.8057 -20.2983
upperneck 18.919 -21.7691 15.7265
head 10.9272 -10.4961 5.77751
rclavicle -1.07779e-015 -1.88597e-014
rhumerus 343.557 369.01 633.046
rradius 36.985
rwrist -17.6858
rhand -23.3597 7.75861
rfingers 7.12502
rthumb 3.09577 -22.1987
lclavicle -1.07779e-015 -1.88597e-014
lhumerus -36.8289 7.32573 83.7297
lradius 32.4029
lwrist -8.96199
lhand -8.71871 7.37705
lfingers 7.12502
lthumb 17.2172 36.6343
rfemur -15.4932 6.90198 24.3744
rtibia 38.1258
rfoot -23.9496 -6.95999
rtoes 4.54662
lfemur -12.0002 2.27061 -16.2568
ltibia 34.9451
lfoot -20.0758 7.56214
ltoes 1.54845
1311
root -3.18425 17.3275 2.68952 3.98237 -12.2832 -5.50304
lowerback 1.92155 0.545087 -0.129122
upperback -4.06631 0.833707 2.52615
thorax -5.32573 0.474618 2.63888
lowerneck -4.25752 -15.0897 -20.5257
upperneck 18.3857 -22.2974 16.1196
head 10.8037 -10.7657 5.87778
rclavicle 1.26259e-014 -7.55382e-015
rhumerus 343.513 369.506 632.817
rradius 37.3137
rwrist -17.7041
rhand -23.3682 7.8246
rfingers 7.12502
rthumb 3.08748 -22.1328
lclavicle 1.26259e-014 -7.55382e-015
lhumerus -36.8805 7.32368 83.6958
lradius 32.5948
lwrist -8.77487
lhand -9.03348 7.25943
lfingers 7.12502
lthumb 16.9142 36.5429
rfemur -15.4263 6.84457 24.4317
rtibia 38.1015
rfoot -23.9756 -7.02181
rtoes 4.53922
lfemur -11.9889 2.24179 -16.2016
ltibia 34.9706
lfoot -20.1145 7.49273
ltoes 1.51769
